<svg xmlns="http://www.w3.org/2000/svg" viewBox="-215.379 0 783 244" enable-background="new -215.379 0 783 244" xmlns:xlink="http://www.w3.org/1999/xlink"><defs><linearGradient id="3" gradientUnits="userSpaceOnUse" x1="-173.04" y1="245.29" x2="-71.844" y2="83.35" xlink:href="#2"/><linearGradient id="2" gradientUnits="userSpaceOnUse" x1="-200.33" y1="106.2" x2="-75.82" y2="28.394"><stop stop-color="#42ab4a"/><stop offset="1" stop-color="#add155"/></linearGradient><linearGradient id="0" gradientUnits="userSpaceOnUse" x1="-1.165" y1="67.05" x2="-88.23" y2="10.357"><stop stop-color="#80c3e6"/><stop offset="1" stop-color="#3380c2"/></linearGradient><linearGradient id="1" gradientUnits="userSpaceOnUse" x1="14.05" y1="198.08" x2="-51.03" y2="155.1"><stop stop-color="#f38649"/><stop offset=".185" stop-color="#f28147"/><stop offset=".409" stop-color="#ef7242"/><stop offset=".654" stop-color="#ea5a3a"/><stop offset=".911" stop-color="#e4382e"/><stop offset="1" stop-color="#e12a29"/></linearGradient></defs><path fill="url(#0)" d="m-29.889 101.57l48.627-78.04h-117.26l-16.47 25.88z"/><path opacity=".15" d="m-114.99 49.41l8.63-13.33 76.47 65.49z"/><path fill="url(#1)" d="m-4.399 243.14v-117.26l-25.1-16.08-53.33 84.32z"/><path opacity=".15" d="m-82.83 194.12l13.33 8.23 40-92.55z"/><path fill="url(#2)" d="m-193.42 0v117.25l27.45 16.08 136.08-31.76z"/><path fill="url(#3)" d="m-166.75 142.35l-48.63 76.47h117.26l68.62-109.02z"/><path d="m41.09 136.86h15.294l7.843-95.69h-15.686v-13.334h34.51l31.373 74.902c1.96 5.098 2.745 9.02 2.745 9.02h.393c0 0 .784-3.922 2.745-9.02l31.373-74.902h34.51v13.333h-15.687l7.844 95.69h15.293v13.726h-47.06v-13.726h14.51l-5.49-73.33c0-3.922.392-10.196.392-10.196h-.392c0 0-1.569 5.882-2.745 9.412l-27.843 64.707h-15.294l-27.846-64.707c-1.569-3.529-2.745-9.412-2.745-9.412h-.392c0 0 .784 6.274.392 10.196l-5.49 73.33h14.51v13.726h-47.06v-13.725"/><path d="m265.8 25.49c35.29 0 62.745 27.451 62.745 62.746 0 36.08-27.451 64.31-62.745 64.31s-62.745-28.23-62.745-64.31c0-35.3 27.451-62.746 62.745-62.746m0 111.77c24.706 0 44.706-21.18 44.706-49.02 0-26.667-20-47.45-44.706-47.45s-45.1 20.392-45.1 47.45c0 27.451 20.392 49.02 45.1 49.02"/><path d="m339.92 136.86h15.294v-95.69h-15.294v-13.334h52.16c10.196 0 17.647.392 25.883 3.137 23.14 7.451 38.432 28.627 38.432 58.43 0 29.805-14.51 50.589-38.432 58.04-7.844 2.744-16.08 3.137-25.883 3.137h-52.16v-13.725m51.37-.784c7.843 0 14.51-.784 20.784-3.138 16.471-5.882 26.667-21.568 26.667-43.921 0-22.745-10.196-38.432-26.27-44.31-6.667-2.353-12.941-2.745-20.784-2.745h-18.824v94.12h18.431"/><path d="m462.66 136.86h11.372l31.373-48.627-30.98-47.45h-11.373v-13.334h38.432v13.333h-9.02l20.393 32.16c1.96 2.745 3.137 4.706 3.137 4.706h.393c0 0 1.176-2.353 2.745-4.706l19.607-32.16h-8.627v-13.333h37.25v13.333h-11.373l-31.765 49.02 30.98 47.06h11.765v13.726h-38.432v-13.726h9.02l-20.392-32.16c-1.961-2.744-3.138-5.098-3.138-5.098h-.392c0 0-1.177 2.354-2.745 5.098l-19.608 32.16h9.02v13.726h-37.647v-13.726"/><path d="m40.473 232.26h5.918l19.629-54.756h9.835l19.628 54.756h5.918v6.812h-21.374v-6.812h6.557l-4.811-13.668h-21.8l-4.769 13.668h6.6v6.812h-21.331v-6.812m39.13-20.65l-7.494-21.374c-.228-.624-.404-1.221-.532-1.788-.127-.568-.234-1.064-.319-1.49-.114-.512-.185-.979-.213-1.405h-.255c-.029.426-.1.894-.213 1.405-.085.426-.191.922-.319 1.49-.128.567-.292 1.164-.49 1.788l-7.622 21.374h17.457"/><path d="m106.21 232.51h6.897v-29.21c0-1.22-.639-1.831-1.916-1.831h-5.407v-6.515h9.963c3.718 0 5.578 1.618 5.578 4.854v2.299c0 .341-.015.667-.043.979s-.071.582-.127.809c-.057.284-.1.526-.128.725h.213c.539-1.306 1.327-2.598 2.363-3.875 1.036-1.277 2.242-2.427 3.619-3.449 1.376-1.021 2.888-1.845 4.535-2.469 1.646-.624 3.363-.938 5.152-.938 3.548 0 6.4.831 8.558 2.491 2.157 1.66 3.604 4.294 4.343 7.898h.17c.624-1.362 1.455-2.676 2.491-3.938s2.242-2.37 3.619-3.321c1.376-.951 2.881-1.71 4.514-2.278 1.632-.567 3.356-.852 5.173-.852 4.911 0 8.537 1.405 10.879 4.216 2.342 2.81 3.512 7.04 3.512 12.688v21.715h6.982v6.557h-15.455v-26.441c0-1.532-.092-2.973-.277-4.321-.185-1.348-.553-2.526-1.107-3.534-.553-1.01-1.341-1.795-2.363-2.363-1.022-.567-2.356-.852-4-.852-2.072 0-3.911.49-5.514 1.47-1.604.979-2.959 2.271-4.066 3.874-1.107 1.604-1.952 3.435-2.534 5.493-.582 2.058-.873 4.18-.873 6.365v13.753h6.897v6.557h-15.369v-26.441c0-1.447-.079-2.838-.234-4.172-.156-1.334-.504-2.513-1.043-3.534-.54-1.022-1.313-1.838-2.32-2.448-1.01-.61-2.363-.916-4.066-.916-2.101 0-3.975.512-5.62 1.533-1.647 1.021-3.03 2.356-4.151 4-1.122 1.646-1.98 3.521-2.576 5.621s-.894 4.229-.894 6.387v13.412h6.983v6.557h-22.354v-6.558z"/><path d="m196.65 184.06h-7.408v-6.558h15.882v20.396c0 .539-.015 1.029-.043 1.469-.028.44-.057.816-.085 1.128-.058.369-.1.725-.128 1.064h.171c.822-1.419 1.901-2.696 3.235-3.832.567-.482 1.214-.95 1.938-1.404s1.547-.866 2.47-1.235c.922-.368 1.93-.66 3.02-.873s2.278-.319 3.556-.319c2.98 0 5.67.562 8.07 1.683s4.435 2.696 6.11 4.726c1.675 2.03 2.966 4.464 3.874 7.303.908 2.838 1.363 5.976 1.363 9.409 0 3.521-.497 6.699-1.49 9.538-.994 2.838-2.385 5.266-4.173 7.28-1.788 2.02-3.917 3.57-6.387 4.662-2.47 1.093-5.167 1.64-8.09 1.64-1.277 0-2.456-.113-3.534-.341-1.079-.228-2.065-.532-2.959-.915-.895-.384-1.703-.81-2.427-1.277-.725-.469-1.356-.958-1.896-1.469-1.306-1.164-2.356-2.513-3.15-4.045h-.17c.027.312.07.653.127 1.021.028.312.057.682.086 1.107.027.426.042.88.042 1.362v3.491h-8v-55.01m8.219 33.13c0 1.958.256 3.874.767 5.748.511 1.873 1.291 3.541 2.342 5 1.05 1.462 2.355 2.64 3.917 3.533 1.561.895 3.406 1.342 5.535 1.342 1.703 0 3.321-.348 4.854-1.043 1.532-.695 2.874-1.718 4.02-3.066 1.149-1.348 2.058-2.994 2.725-4.938s1-4.166 1-6.664c0-2.384-.306-4.548-.916-6.493-.61-1.943-1.462-3.604-2.555-4.981-1.093-1.376-2.405-2.44-3.938-3.193-1.532-.752-3.208-1.128-5.02-1.128-1.646 0-3.236.298-4.77.894-1.532.597-2.889 1.54-4.065 2.832-1.179 1.292-2.123 2.938-2.832 4.938-.71 2-1.065 4.406-1.065 7.216"/><path d="m245.23 226.76c0-2.3.468-4.265 1.405-5.897.937-1.632 2.149-2.994 3.64-4.088 1.49-1.092 3.179-1.958 5.067-2.597 1.888-.639 3.782-1.129 5.684-1.469 1.901-.341 3.726-.554 5.472-.639 1.746-.086 3.229-.128 4.449-.128h2.768v-1.661c0-1.73-.234-3.199-.702-4.406-.469-1.206-1.122-2.179-1.959-2.917-.837-.737-1.831-1.27-2.98-1.597-1.149-.326-2.405-.489-3.768-.489-1.761 0-3.4.22-4.918.66-1.519.44-2.86.93-4.02 1.469-1.363.624-2.598 1.334-3.705 2.129l-3.406-6c1.306-.965 2.811-1.831 4.514-2.597 1.447-.653 3.2-1.257 5.259-1.81 2.058-.554 4.378-.831 6.961-.831 5.677 0 9.964 1.427 12.858 4.279 2.896 2.853 4.344 7.09 4.344 12.71v19.714c0 1.277.639 1.916 1.916 1.916h4.428v6.557h-8.771c-1.986 0-3.399-.439-4.236-1.32-.837-.879-1.256-2.043-1.256-3.491v-.596c0-.426.014-.815.043-1.171.027-.354.07-.66.127-.916.057-.312.113-.581.171-.809h-.171c-.823 1.761-1.916 3.321-3.278 4.684-.568.596-1.228 1.171-1.979 1.725-.753.554-1.59 1.05-2.513 1.49-.922.439-1.951.794-3.087 1.064-1.135.27-2.37.404-3.704.404-1.846 0-3.641-.271-5.386-.809-1.746-.539-3.308-1.363-4.684-2.47-1.377-1.107-2.484-2.498-3.321-4.173-.841-1.673-1.259-3.645-1.259-5.916m8.516-.681c0 .994.177 1.938.532 2.831.354.895.873 1.689 1.554 2.385.682.696 1.512 1.249 2.491 1.66.979.412 2.107.618 3.385.618 1.873 0 3.556-.433 5.05-1.299s2.76-1.986 3.811-3.364c1.05-1.376 1.852-2.909 2.405-4.598s.83-3.371.83-5.05v-1.831h-2.171c-.682 0-1.59.015-2.726.043-1.135.028-2.362.128-3.683.298s-2.661.433-4.02.788c-1.362.354-2.598.852-3.704 1.49-1.107.639-2.01 1.447-2.704 2.427-.696.979-1.043 2.179-1.043 3.598"/><path d="m294.24 224.85h7.409v2.895c0 .938.298 1.753.894 2.448.597.696 1.377 1.264 2.342 1.703.965.44 2.051.774 3.258 1 1.206.228 2.419.341 3.64.341s2.37-.121 3.449-.362c1.078-.24 2.02-.603 2.831-1.086.81-.482 1.44-1.078 1.896-1.788.453-.709.681-1.518.681-2.427 0-1.107-.284-2.051-.852-2.831-.568-.781-1.349-1.47-2.342-2.065-.994-.596-2.157-1.135-3.491-1.618-1.335-.482-2.768-.993-4.301-1.532-1.617-.597-3.25-1.257-4.896-1.98s-3.122-1.597-4.428-2.618c-1.306-1.022-2.37-2.242-3.193-3.662-.823-1.419-1.234-3.136-1.234-5.151 0-2.186.489-4.052 1.469-5.6.979-1.547 2.249-2.81 3.811-3.789 1.561-.979 3.307-1.696 5.237-2.15 1.93-.454 3.859-.682 5.79-.682 1.533 0 3.193.164 4.982.49 1.788.326 3.441.837 4.96 1.532 1.519.696 2.781 1.611 3.789 2.747 1.01 1.135 1.512 2.512 1.512 4.13v5.322h-7.408v-2.896c0-.682-.206-1.299-.617-1.853-.412-.553-.966-1.028-1.661-1.426s-1.519-.703-2.47-.916-1.951-.319-3-.319c-1.051 0-2.044.106-2.98.319-.938.213-1.768.547-2.491 1s-1.299 1.016-1.725 1.682c-.426.667-.639 1.441-.639 2.32 0 1.051.283 1.959.852 2.726.567.767 1.32 1.447 2.257 2.044.937.596 2.02 1.128 3.236 1.597 1.22.468 2.497.93 3.832 1.384 1.703.567 3.42 1.199 5.151 1.895s3.293 1.547 4.684 2.555 2.526 2.229 3.406 3.661c.88 1.434 1.32 3.173 1.32 5.216 0 2.102-.454 3.96-1.362 5.578-.909 1.618-2.15 2.98-3.726 4.088-1.576 1.106-3.449 1.944-5.621 2.512-2.171.567-4.506.852-7 .852-2.02 0-4.045-.22-6.089-.66-2.043-.439-3.889-1.106-5.535-2s-2.995-1.994-4.045-3.3-1.575-2.838-1.575-4.599v-4.728z"/><path d="m336.18 224.85h7.409v2.895c0 .938.298 1.753.894 2.448.597.696 1.377 1.264 2.342 1.703.965.44 2.051.774 3.258 1 1.206.228 2.419.341 3.64.341s2.37-.121 3.449-.362c1.078-.24 2.02-.603 2.831-1.086.81-.482 1.44-1.078 1.896-1.788.453-.709.681-1.518.681-2.427 0-1.107-.284-2.051-.852-2.831-.568-.781-1.349-1.47-2.342-2.065-.994-.596-2.157-1.135-3.491-1.618-1.335-.482-2.768-.993-4.301-1.532-1.617-.597-3.25-1.257-4.896-1.98s-3.122-1.597-4.428-2.618c-1.306-1.022-2.37-2.242-3.193-3.662-.823-1.419-1.234-3.136-1.234-5.151 0-2.186.489-4.052 1.469-5.6.979-1.547 2.249-2.81 3.811-3.789 1.561-.979 3.307-1.696 5.237-2.15 1.93-.454 3.859-.682 5.79-.682 1.533 0 3.193.164 4.982.49 1.788.326 3.441.837 4.96 1.532 1.519.696 2.781 1.611 3.789 2.747 1.01 1.135 1.512 2.512 1.512 4.13v5.322h-7.408v-2.896c0-.682-.206-1.299-.617-1.853-.412-.553-.966-1.028-1.661-1.426s-1.519-.703-2.47-.916-1.951-.319-3-.319c-1.051 0-2.044.106-2.98.319-.938.213-1.768.547-2.491 1s-1.299 1.016-1.725 1.682c-.426.667-.639 1.441-.639 2.32 0 1.051.283 1.959.852 2.726.567.767 1.32 1.447 2.257 2.044.937.596 2.02 1.128 3.236 1.597 1.22.468 2.497.93 3.832 1.384 1.703.567 3.42 1.199 5.151 1.895s3.293 1.547 4.684 2.555 2.526 2.229 3.406 3.661c.88 1.434 1.32 3.173 1.32 5.216 0 2.102-.454 3.96-1.362 5.578-.909 1.618-2.15 2.98-3.726 4.088-1.576 1.106-3.449 1.944-5.621 2.512-2.171.567-4.506.852-7 .852-2.02 0-4.045-.22-6.089-.66-2.043-.439-3.889-1.106-5.535-2s-2.995-1.994-4.045-3.3-1.575-2.838-1.575-4.599v-4.728z"/><path d="m377.52 226.76c0-2.3.468-4.265 1.405-5.897.937-1.632 2.149-2.994 3.64-4.088 1.49-1.092 3.179-1.958 5.067-2.597 1.888-.639 3.782-1.129 5.684-1.469 1.901-.341 3.726-.554 5.472-.639 1.746-.086 3.229-.128 4.449-.128h2.768v-1.661c0-1.73-.234-3.199-.702-4.406-.469-1.206-1.122-2.179-1.959-2.917-.837-.737-1.831-1.27-2.98-1.597-1.149-.326-2.405-.489-3.768-.489-1.761 0-3.4.22-4.918.66-1.519.44-2.86.93-4.02 1.469-1.363.624-2.598 1.334-3.705 2.129l-3.406-6c1.306-.965 2.811-1.831 4.514-2.597 1.447-.653 3.2-1.257 5.259-1.81 2.058-.554 4.378-.831 6.961-.831 5.677 0 9.964 1.427 12.858 4.279 2.896 2.853 4.344 7.09 4.344 12.71v19.714c0 1.277.639 1.916 1.916 1.916h4.428v6.557h-8.771c-1.986 0-3.399-.439-4.236-1.32-.837-.879-1.256-2.043-1.256-3.491v-.596c0-.426.014-.815.043-1.171.027-.354.07-.66.127-.916.057-.312.113-.581.171-.809h-.171c-.823 1.761-1.916 3.321-3.278 4.684-.568.596-1.228 1.171-1.979 1.725-.753.554-1.59 1.05-2.513 1.49-.922.439-1.951.794-3.087 1.064-1.135.27-2.37.404-3.704.404-1.846 0-3.641-.271-5.386-.809-1.746-.539-3.308-1.363-4.684-2.47-1.377-1.107-2.484-2.498-3.321-4.173-.841-1.673-1.259-3.645-1.259-5.916m8.516-.681c0 .994.177 1.938.532 2.831.354.895.873 1.689 1.554 2.385.682.696 1.512 1.249 2.491 1.66.979.412 2.107.618 3.385.618 1.873 0 3.556-.433 5.05-1.299s2.76-1.986 3.811-3.364c1.05-1.376 1.852-2.909 2.405-4.598s.83-3.371.83-5.05v-1.831h-2.171c-.682 0-1.59.015-2.726.043-1.135.028-2.362.128-3.683.298s-2.661.433-4.02.788c-1.362.354-2.598.852-3.704 1.49-1.107.639-2.01 1.447-2.704 2.427-.696.979-1.043 2.179-1.043 3.598"/><path d="m426.7 217.01c0-3.52.489-6.698 1.469-9.537.979-2.838 2.349-5.266 4.108-7.281 1.76-2.01 3.875-3.569 6.345-4.662 2.469-1.093 5.18-1.64 8.132-1.64 1.249 0 2.398.106 3.449.319 1.05.213 2.01.497 2.896.852.879.355 1.667.753 2.362 1.192.695.44 1.313.888 1.853 1.342 1.249 1.106 2.271 2.342 3.065 3.704h.171c-.058-.283-.114-.597-.171-.937-.085-.597-.128-1.391-.128-2.385v-13.923h-7.323v-6.557h15.797v53.1c0 .653.17 1.135.511 1.447s.809.469 1.405.469h4.471v6.557h-8.813c-1.959 0-3.364-.439-4.216-1.32-.852-.879-1.277-2.043-1.277-3.491v-.596c0-.767.043-1.348.128-1.746.028-.227.07-.426.128-.596h-.171c-.766 1.646-1.83 3.123-3.193 4.428-.567.568-1.234 1.114-2 1.64s-1.633.986-2.597 1.384c-.966.397-2.037.724-3.215.979-1.179.255-2.477.383-3.896.383-2.98 0-5.656-.561-8.02-1.682-2.37-1.121-4.393-2.704-6.067-4.748-1.676-2.043-2.959-4.484-3.854-7.323-.896-2.839-1.343-5.962-1.343-9.368m8.643 0c0 2.385.305 4.55.916 6.493.61 1.944 1.469 3.605 2.576 4.981 1.106 1.378 2.419 2.442 3.938 3.193 1.518.753 3.199 1.129 5.05 1.129 1.618 0 3.193-.305 4.727-.916 1.532-.609 2.896-1.554 4.087-2.831 1.192-1.277 2.144-2.902 2.854-4.875.709-1.973 1.064-4.336 1.064-7.09 0-2.043-.256-4.01-.767-5.896s-1.292-3.569-2.342-5.05c-1.051-1.476-2.356-2.653-3.917-3.534-1.562-.879-3.379-1.319-5.45-1.319-1.761 0-3.414.348-4.961 1.043-1.547.696-2.895 1.71-4.045 3.044-1.149 1.335-2.058 2.98-2.725 4.939s-1 4.188-1 6.685"/><path d="m481.03 216.93c0-3.349.624-6.43 1.874-9.239 1.248-2.811 2.944-5.237 5.088-7.281 2.143-2.044 4.662-3.641 7.558-4.79s5.988-1.725 9.282-1.725c3.292 0 6.387.575 9.281 1.725 2.896 1.149 5.414 2.746 7.558 4.79s3.839 4.471 5.089 7.281c1.248 2.81 1.873 5.891 1.873 9.239 0 3.35-.625 6.444-1.873 9.282-1.25 2.839-2.945 5.287-5.089 7.345-2.144 2.059-4.662 3.669-7.558 4.832-2.895 1.164-5.989 1.746-9.281 1.746-3.294 0-6.387-.582-9.282-1.746-2.896-1.163-5.415-2.773-7.558-4.832-2.144-2.058-3.84-4.506-5.088-7.345-1.25-2.837-1.874-5.932-1.874-9.282m8.644 0c0 2.299.397 4.422 1.192 6.365.794 1.944 1.873 3.619 3.235 5.02 1.363 1.405 2.966 2.506 4.812 3.3 1.845.795 3.817 1.192 5.919 1.192 2.071 0 4.03-.397 5.875-1.192 1.846-.794 3.456-1.895 4.833-3.3s2.462-3.08 3.257-5.02c.795-1.943 1.192-4.066 1.192-6.365s-.397-4.407-1.192-6.323-1.88-3.569-3.257-4.96-2.987-2.477-4.833-3.257c-1.845-.781-3.804-1.171-5.875-1.171-2.102 0-4.074.39-5.919 1.171-1.846.78-3.448 1.866-4.812 3.257-1.362 1.391-2.441 3.044-3.235 4.96-.795 1.916-1.192 4.02-1.192 6.323"/><path d="m536.12 232.51h6.643v-29.12c0-1.277-.639-1.916-1.916-1.916h-5.493v-6.515h9.921c1.959 0 3.399.412 4.322 1.235.922.823 1.384 2.129 1.384 3.917v2.768c0 .454-.015.858-.043 1.214-.028.354-.058.674-.085.958-.028.312-.058.61-.085.894h.213c.511-1.618 1.198-3.129 2.064-4.534s1.895-2.625 3.087-3.662c1.192-1.036 2.526-1.852 4-2.448 1.476-.596 3.065-.894 4.769-.894.283 0 .56.015.83.042.27.028.504.058.702.085.228.029.44.058.639.086v8.345c-.198-.027-.426-.07-.681-.128-.228-.027-.49-.057-.788-.085-.298-.027-.617-.042-.958-.042-2.356 0-4.379.539-6.067 1.617-1.688 1.079-3.08 2.484-4.173 4.216s-1.895 3.676-2.405 5.833-.767 4.315-.767 6.472v11.667h6.515v6.557h-21.63v-6.558"/></svg>