<svg xmlns="http://www.w3.org/2000/svg" viewBox="-215.379 0 783 244" enable-background="new -215.379 0 783 244" xmlns:xlink="http://www.w3.org/1999/xlink"><defs><linearGradient id="3" gradientUnits="userSpaceOnUse" x1="-173.04" y1="245.29" x2="-71.844" y2="83.35" xlink:href="#2"/><linearGradient id="2" gradientUnits="userSpaceOnUse" x1="-200.33" y1="106.2" x2="-75.82" y2="28.394"><stop stop-color="#42ab4a"/><stop offset="1" stop-color="#add155"/></linearGradient><linearGradient id="0" gradientUnits="userSpaceOnUse" x1="-1.165" y1="67.05" x2="-88.23" y2="10.357"><stop stop-color="#80c3e6"/><stop offset="1" stop-color="#3380c2"/></linearGradient><linearGradient id="1" gradientUnits="userSpaceOnUse" x1="14.05" y1="198.08" x2="-51.03" y2="155.1"><stop stop-color="#f38649"/><stop offset=".185" stop-color="#f28147"/><stop offset=".409" stop-color="#ef7242"/><stop offset=".654" stop-color="#ea5a3a"/><stop offset=".911" stop-color="#e4382e"/><stop offset="1" stop-color="#e12a29"/></linearGradient></defs><path fill="url(#0)" d="m-29.889 101.57l48.627-78.04h-117.26l-16.47 25.88z"/><path opacity=".15" d="m-114.99 49.41l8.63-13.33 76.47 65.49z"/><path fill="url(#1)" d="m-4.399 243.14v-117.26l-25.1-16.08-53.33 84.32z"/><path opacity=".15" d="m-82.83 194.12l13.33 8.23 40-92.55z"/><path fill="url(#2)" d="m-193.42 0v117.25l27.45 16.08 136.08-31.76z"/><path fill="url(#3)" d="m-166.75 142.35l-48.63 76.47h117.26l68.62-109.02z"/><path d="m41.09 136.86h15.294l7.843-95.69h-15.686v-13.334h34.51l31.373 74.902c1.96 5.098 2.745 9.02 2.745 9.02h.393c0 0 .784-3.922 2.745-9.02l31.373-74.902h34.51v13.333h-15.687l7.844 95.69h15.293v13.726h-47.06v-13.726h14.51l-5.49-73.33c0-3.922.392-10.196.392-10.196h-.392c0 0-1.569 5.882-2.745 9.412l-27.843 64.707h-15.294l-27.846-64.707c-1.569-3.529-2.745-9.412-2.745-9.412h-.392c0 0 .784 6.274.392 10.196l-5.49 73.33h14.51v13.726h-47.06v-13.725"/><path d="m265.8 25.49c35.29 0 62.745 27.451 62.745 62.746 0 36.08-27.451 64.31-62.745 64.31s-62.745-28.23-62.745-64.31c0-35.3 27.451-62.746 62.745-62.746m0 111.77c24.706 0 44.706-21.18 44.706-49.02 0-26.667-20-47.45-44.706-47.45s-45.1 20.392-45.1 47.45c0 27.451 20.392 49.02 45.1 49.02"/><path d="m339.92 136.86h15.294v-95.69h-15.294v-13.334h52.16c10.196 0 17.647.392 25.883 3.137 23.14 7.451 38.432 28.627 38.432 58.43 0 29.805-14.51 50.589-38.432 58.04-7.844 2.744-16.08 3.137-25.883 3.137h-52.16v-13.725m51.37-.784c7.843 0 14.51-.784 20.784-3.138 16.471-5.882 26.667-21.568 26.667-43.921 0-22.745-10.196-38.432-26.27-44.31-6.667-2.353-12.941-2.745-20.784-2.745h-18.824v94.12h18.431"/><path d="m462.66 136.86h11.372l31.373-48.627-30.98-47.45h-11.373v-13.334h38.432v13.333h-9.02l20.393 32.16c1.96 2.745 3.137 4.706 3.137 4.706h.393c0 0 1.176-2.353 2.745-4.706l19.607-32.16h-8.627v-13.333h37.25v13.333h-11.373l-31.765 49.02 30.98 47.06h11.765v13.726h-38.432v-13.726h9.02l-20.392-32.16c-1.961-2.744-3.138-5.098-3.138-5.098h-.392c0 0-1.177 2.354-2.745 5.098l-19.608 32.16h9.02v13.726h-37.647v-13.726"/><path d="m42.15 232.23h7.69v-48.19h-7.69v-6.75h28.753c1.88 0 3.731.1 5.554.299 1.822.199 3.503.655 5.04 1.367 1.595.684 3.04 1.596 4.336 2.734 1.296 1.14 2.399 2.456 3.312 3.952.911 1.495 1.616 3.161 2.115 4.998.498 1.838.748 3.781.748 5.832 0 2.165-.278 4.209-.833 6.131-.556 1.923-1.339 3.668-2.35 5.234-1.01 1.566-2.229 2.927-3.653 4.08-1.425 1.153-3.02 2.044-4.785 2.67-1.453.513-2.941.854-4.465 1.025-1.524.171-3.14.257-4.849.257h-12.476v16.363h7.776v6.836h-24.23v-6.835m27.899-23.541c1.395 0 2.656-.1 3.781-.299 1.125-.199 2.171-.498 3.14-.897 1.965-.883 3.489-2.271 4.571-4.166 1.083-1.894 1.624-4.18 1.624-6.857 0-2.506-.478-4.657-1.432-6.451-.955-1.794-2.314-3.146-4.08-4.059-.969-.541-2.087-.926-3.354-1.153-1.268-.229-2.656-.342-4.166-.342h-11.534v24.22h11.45z"/><path d="m98.97 232.49h6.665v-29.22c0-1.282-.641-1.923-1.922-1.923h-5.512v-6.537h9.955c1.965 0 3.41.413 4.336 1.239.925.826 1.388 2.136 1.388 3.931v2.776c0 .456-.015.862-.042 1.218-.029.356-.058.678-.085.962-.029.313-.058.612-.085.896h.213c.513-1.623 1.203-3.14 2.072-4.55.869-1.41 1.901-2.634 3.098-3.674s2.535-1.858 4.02-2.457c1.48-.599 3.076-.897 4.785-.897.284 0 .562.015.833.043.271.028.505.058.705.086.228.028.441.057.641.085v8.374c-.2-.028-.428-.07-.684-.128-.229-.028-.492-.057-.791-.086-.299-.027-.62-.042-.961-.042-2.365 0-4.394.541-6.088 1.623-1.695 1.083-3.091 2.493-4.187 4.229-1.097 1.738-1.901 3.689-2.414 5.854-.513 2.165-.769 4.33-.769 6.494v11.706h6.537v6.58h-21.704v-6.579"/><path d="m134.69 216.85c0-3.36.626-6.451 1.88-9.271 1.253-2.819 2.955-5.255 5.105-7.306 2.15-2.051 4.678-3.653 7.583-4.807s6.01-1.73 9.314-1.73c3.304 0 6.408.577 9.313 1.73s5.433 2.756 7.584 4.807c2.149 2.051 3.852 4.486 5.105 7.306 1.253 2.82 1.88 5.911 1.88 9.271 0 3.361-.627 6.466-1.88 9.314-1.254 2.848-2.956 5.305-5.105 7.369-2.151 2.065-4.679 3.682-7.584 4.85s-6.01 1.752-9.313 1.752c-3.305 0-6.409-.584-9.314-1.752s-5.433-2.784-7.583-4.85c-2.151-2.064-3.853-4.521-5.105-7.369-1.254-2.848-1.88-5.953-1.88-9.314m8.673 0c0 2.307.398 4.437 1.196 6.388.797 1.951 1.88 3.631 3.247 5.04s2.976 2.515 4.828 3.312c1.851.798 3.831 1.196 5.939 1.196 2.079 0 4.04-.398 5.896-1.196 1.852-.797 3.468-1.901 4.85-3.312 1.381-1.41 2.471-3.09 3.269-5.04.797-1.951 1.196-4.081 1.196-6.388s-.399-4.422-1.196-6.345c-.798-1.923-1.888-3.581-3.269-4.978-1.382-1.395-2.998-2.484-4.85-3.269-1.852-.782-3.817-1.175-5.896-1.175-2.108 0-4.088.393-5.939 1.175-1.852.784-3.46 1.874-4.828 3.269-1.367 1.396-2.45 3.055-3.247 4.978-.797 1.923-1.196 4.04-1.196 6.345"/><path d="m189.81 232.49h6.921v-31.15h-7.349v-6.537h7.349v-2.179c0-2.364.271-4.4.812-6.109s1.261-3.154 2.158-4.337c.896-1.182 1.907-2.129 3.03-2.841 1.125-.712 2.278-1.268 3.461-1.667 1.182-.398 2.335-.662 3.46-.79s2.129-.192 3.01-.192c.569 0 1.104.015 1.602.043s.933.058 1.304.085c.427.058.797.101 1.11.129v7.01c-.229-.027-.498-.07-.812-.128-.285-.027-.627-.057-1.025-.085-.399-.028-.841-.043-1.324-.043-.684 0-1.503.079-2.457.235s-1.866.534-2.734 1.132c-.869.598-1.603 1.474-2.2 2.628-.598 1.153-.897 2.728-.897 4.721v2.393h10.682v6.537h-10.682v31.15h8.118v6.58h-23.541v-6.581z"/><path d="m221.68 216.94c0-3.532.562-6.723 1.688-9.57 1.125-2.849 2.677-5.283 4.657-7.307 1.979-2.02 4.315-3.581 7.01-4.678s5.618-1.646 8.78-1.646c3.161 0 5.938.542 8.331 1.624 2.393 1.083 4.393 2.563 6 4.443 1.608 1.88 2.819 4.08 3.631 6.601.812 2.521 1.218 5.22 1.218 8.097 0 .285-.015.612-.042.982-.029.37-.072.712-.129 1.025-.058.399-.1.798-.128 1.196h-32.34c.113 2.45.612 4.614 1.496 6.494.882 1.88 2.01 3.454 3.396 4.721 1.381 1.269 2.969 2.229 4.764 2.884 1.794.656 3.674.983 5.64.983 1.937 0 3.702-.257 5.298-.77 1.595-.513 2.99-1.082 4.187-1.709 1.367-.74 2.606-1.581 3.718-2.521l3.503 6.195c-1.339 1.14-2.892 2.165-4.657 3.076-1.51.769-3.311 1.474-5.404 2.114-2.094.642-4.479.962-7.156.962-3.476 0-6.651-.592-9.527-1.773-2.878-1.182-5.349-2.812-7.413-4.892-2.065-2.079-3.668-4.536-4.807-7.37-1.142-2.831-1.711-5.886-1.711-9.161m32.555-4.657c-.057-1.937-.377-3.646-.961-5.127-.584-1.48-1.36-2.713-2.328-3.696-.969-.982-2.08-1.723-3.333-2.222-1.254-.498-2.578-.747-3.974-.747-1.623 0-3.154.264-4.593.79-1.438.527-2.72 1.297-3.845 2.308-1.126 1.01-2.08 2.25-2.862 3.717-.784 1.467-1.332 3.126-1.646 4.978h23.542"/><path d="m270.17 224.8h7.434v2.904c0 .94.299 1.76.897 2.457.598.698 1.381 1.268 2.35 1.709.968.442 2.058.776 3.269 1 1.21.229 2.428.342 3.652.342s2.378-.12 3.461-.363c1.082-.241 2.029-.604 2.842-1.089.812-.484 1.445-1.082 1.9-1.795.456-.711.684-1.523.684-2.435 0-1.111-.284-2.058-.854-2.842-.57-.783-1.354-1.474-2.351-2.072-.997-.598-2.165-1.139-3.503-1.623-1.34-.484-2.777-.997-4.315-1.538-1.624-.599-3.262-1.261-4.913-1.987-1.652-.726-3.134-1.602-4.443-2.627-1.311-1.025-2.379-2.25-3.205-3.675-.826-1.424-1.238-3.146-1.238-5.169 0-2.193.491-4.066 1.474-5.619.982-1.552 2.257-2.819 3.824-3.802 1.565-.983 3.317-1.702 5.255-2.158 1.937-.455 3.873-.684 5.811-.684 1.538 0 3.204.164 4.999.491 1.794.328 3.453.841 4.978 1.538 1.523.698 2.791 1.617 3.802 2.756 1.01 1.14 1.517 2.521 1.517 4.145v5.341h-7.434v-2.905c0-.684-.207-1.304-.619-1.858-.414-.556-.969-1.032-1.667-1.432-.698-.398-1.523-.705-2.478-.919-.955-.213-1.959-.32-3.01-.32-1.055 0-2.051.107-2.991.32-.94.214-1.773.549-2.499 1-.727.455-1.304 1.019-1.73 1.688-.428.669-.641 1.445-.641 2.328 0 1.054.284 1.965.854 2.734.57.77 1.325 1.453 2.265 2.051.94.598 2.02 1.132 3.247 1.603 1.225.47 2.506.933 3.846 1.388 1.709.57 3.432 1.204 5.17 1.901 1.736.698 3.304 1.553 4.699 2.563 1.396 1.012 2.535 2.236 3.418 3.675s1.324 3.183 1.324 5.233c0 2.108-.456 3.974-1.367 5.598-.912 1.623-2.157 2.99-3.738 4.102-1.581 1.11-3.461 1.951-5.64 2.521s-4.522.854-7.03.854c-2.02 0-4.059-.222-6.109-.662-2.051-.441-3.902-1.111-5.555-2.01-1.651-.896-3-2-4.059-3.311-1.054-1.31-1.58-2.848-1.58-4.614v-4.743z"/><path d="m312.26 224.8h7.434v2.904c0 .94.299 1.76.897 2.457.598.698 1.381 1.268 2.35 1.709.968.442 2.058.776 3.269 1 1.21.229 2.428.342 3.652.342s2.378-.12 3.461-.363c1.082-.241 2.029-.604 2.842-1.089.812-.484 1.445-1.082 1.9-1.795.456-.711.684-1.523.684-2.435 0-1.111-.284-2.058-.854-2.842-.57-.783-1.354-1.474-2.351-2.072-.997-.598-2.165-1.139-3.503-1.623-1.34-.484-2.777-.997-4.315-1.538-1.624-.599-3.262-1.261-4.913-1.987-1.652-.726-3.134-1.602-4.443-2.627-1.311-1.025-2.379-2.25-3.205-3.675-.826-1.424-1.238-3.146-1.238-5.169 0-2.193.491-4.066 1.474-5.619.982-1.552 2.257-2.819 3.824-3.802 1.565-.983 3.317-1.702 5.255-2.158 1.937-.455 3.873-.684 5.811-.684 1.538 0 3.204.164 4.999.491 1.794.328 3.453.841 4.978 1.538 1.523.698 2.791 1.617 3.802 2.756 1.01 1.14 1.517 2.521 1.517 4.145v5.341h-7.434v-2.905c0-.684-.207-1.304-.619-1.858-.414-.556-.969-1.032-1.667-1.432-.698-.398-1.523-.705-2.478-.919-.955-.213-1.959-.32-3.01-.32-1.055 0-2.051.107-2.991.32-.94.214-1.773.549-2.499 1-.727.455-1.304 1.019-1.73 1.688-.428.669-.641 1.445-.641 2.328 0 1.054.284 1.965.854 2.734.57.77 1.325 1.453 2.265 2.051.94.598 2.02 1.132 3.247 1.603 1.225.47 2.506.933 3.846 1.388 1.709.57 3.432 1.204 5.17 1.901 1.736.698 3.304 1.553 4.699 2.563 1.396 1.012 2.535 2.236 3.418 3.675s1.324 3.183 1.324 5.233c0 2.108-.456 3.974-1.367 5.598-.912 1.623-2.157 2.99-3.738 4.102-1.581 1.11-3.461 1.951-5.64 2.521s-4.522.854-7.03.854c-2.02 0-4.059-.222-6.109-.662-2.051-.441-3.902-1.111-5.555-2.01-1.651-.896-3-2-4.059-3.311-1.054-1.31-1.58-2.848-1.58-4.614v-4.743z"/><path d="m355.02 232.49h6.921v-31.15h-7.349v-6.537h15.851v37.683h7.01v6.58h-22.43v-6.58m6.75-55.2h8.93v8.673h-8.93v-8.673"/><path d="m383.31 216.85c0-3.36.626-6.451 1.879-9.271 1.254-2.819 2.955-5.255 5.106-7.306 2.149-2.051 4.678-3.653 7.583-4.807s6.01-1.73 9.314-1.73c3.304 0 6.408.577 9.313 1.73s5.433 2.756 7.584 4.807c2.15 2.051 3.852 4.486 5.105 7.306 1.253 2.82 1.88 5.911 1.88 9.271 0 3.361-.627 6.466-1.88 9.314-1.254 2.848-2.955 5.305-5.105 7.369-2.151 2.065-4.679 3.682-7.584 4.85s-6.01 1.752-9.313 1.752c-3.305 0-6.409-.584-9.314-1.752s-5.434-2.784-7.583-4.85c-2.151-2.064-3.853-4.521-5.106-7.369-1.253-2.848-1.879-5.953-1.879-9.314m8.672 0c0 2.307.398 4.437 1.196 6.388.797 1.951 1.88 3.631 3.247 5.04s2.976 2.515 4.827 3.312c1.852.798 3.831 1.196 5.939 1.196 2.078 0 4.04-.398 5.896-1.196 1.852-.797 3.468-1.901 4.85-3.312 1.381-1.41 2.471-3.09 3.269-5.04.797-1.951 1.196-4.081 1.196-6.388s-.399-4.422-1.196-6.345c-.798-1.923-1.888-3.581-3.269-4.978-1.382-1.395-2.998-2.484-4.85-3.269-1.852-.782-3.817-1.175-5.896-1.175-2.108 0-4.088.393-5.939 1.175-1.852.784-3.46 1.874-4.827 3.269-1.367 1.396-2.45 3.055-3.247 4.978-.797 1.923-1.196 4.04-1.196 6.345"/><path d="m438.42 232.49h6.921v-29.22c0-1.282-.641-1.923-1.923-1.923h-5.426v-6.537h9.998c1.937 0 3.354.406 4.251 1.218.896.812 1.346 2.029 1.346 3.652v2.308c0 .342-.015.67-.043.982-.028.314-.071.584-.128.812-.058.285-.101.528-.129.727h.214c.143-.398.406-.939.791-1.623.384-.684.903-1.424 1.56-2.222.654-.797 1.444-1.603 2.371-2.414.925-.812 2.01-1.552 3.247-2.222 1.238-.669 2.627-1.218 4.165-1.645 1.538-.428 3.232-.642 5.084-.642 5.07 0 8.787 1.418 11.151 4.251 2.364 2.835 3.546 7.07 3.546 12.711v21.789h7.01v6.58h-15.51v-26.404c0-1.565-.1-3.03-.299-4.379-.199-1.353-.598-2.527-1.196-3.524s-1.438-1.787-2.521-2.371c-1.083-.584-2.507-.876-4.272-.876-2.222 0-4.245.47-6.067 1.41-1.823.939-3.383 2.2-4.678 3.78-1.297 1.581-2.294 3.391-2.991 5.427-.698 2.036-1.047 4.165-1.047 6.387v13.971h7.01v6.58h-22.43v-6.58"/><path d="m497.42 226.72c0-2.307.47-4.279 1.41-5.917.939-1.638 2.157-3 3.652-4.102 1.496-1.097 3.19-1.966 5.085-2.606 1.894-.641 3.795-1.132 5.703-1.474s3.738-.556 5.49-.642c1.752-.085 3.24-.128 4.465-.128h2.777v-1.666c0-1.737-.235-3.211-.705-4.422-.47-1.21-1.126-2.186-1.966-2.927-.84-.74-1.837-1.274-2.99-1.603-1.153-.327-2.414-.491-3.781-.491-1.767 0-3.411.222-4.935.662-1.524.442-2.87.934-4.04 1.475-1.367.627-2.606 1.339-3.718 2.136l-3.418-6.02c1.31-.968 2.82-1.837 4.529-2.605 1.452-.655 3.211-1.261 5.276-1.816 2.064-.555 4.394-.833 6.985-.833 5.696 0 9.997 1.432 12.903 4.294 2.904 2.862 4.357 7.113 4.357 12.754v19.781c0 1.281.641 1.922 1.923 1.922h4.443v6.58h-8.802c-1.994 0-3.411-.441-4.251-1.324-.841-.883-1.261-2.051-1.261-3.504v-.598c0-.428.015-.818.043-1.175s.071-.663.129-.919c.057-.313.113-.583.17-.812h-.17c-.827 1.767-1.923 3.332-3.29 4.699-.57.599-1.232 1.175-1.987 1.73s-1.595 1.055-2.521 1.495c-.926.441-1.959.798-3.098 1.068-1.14.271-2.378.406-3.717.406-1.852 0-3.653-.271-5.404-.812-1.752-.54-3.319-1.367-4.7-2.478-1.382-1.11-2.492-2.506-3.332-4.187-.837-1.678-1.257-3.658-1.257-5.937m8.545-.683c0 .998.178 1.944.534 2.842.355.896.876 1.694 1.56 2.393s1.517 1.253 2.499 1.666 2.115.619 3.396.619c1.88 0 3.567-.434 5.063-1.303 1.495-.868 2.77-1.993 3.823-3.375s1.858-2.92 2.414-4.614.833-3.382.833-5.063v-1.837h-2.179c-.684 0-1.596.015-2.734.043-1.14.028-2.371.128-3.695.299-1.325.171-2.671.435-4.04.79-1.367.356-2.606.854-3.717 1.496-1.11.641-2.02 1.452-2.713 2.435-.698.982-1.046 2.185-1.046 3.609"/><path d="m550.02 183.87h-7.348v-6.579h15.851v48.663c0 .939.063 1.794.192 2.563.128.769.363 1.431.705 1.986s.818.982 1.431 1.282c.612.299 1.402.448 2.371.448.342 0 .655 0 .94 0 .284 0 .54-.014.769-.043.257 0 .484-.014.684-.043l-.085 7.01c-.342.027-.713.057-1.111.085-.342.028-.747.05-1.218.064-.47.014-.947.021-1.431.021-1.596 0-3.098-.186-4.508-.555-1.41-.37-2.656-1.032-3.738-1.987-1.083-.953-1.938-2.264-2.563-3.931-.627-1.666-.94-3.795-.94-6.387v-42.595"/></svg>